<svg width="86" height="72" viewBox="0 0 86 72" fill="none" xmlns="http://www.w3.org/2000/svg">
<path d="M0 64H76.4444V72H0V64ZM83.1333 2.4C81.2222 0.8 79.3111 0 76.4444 0H0V40C0 44.4 1.91111 48 5.73333 51.2C9.55555 54.4 13.8556 56 19.1111 56H47.7778C53.0333 56 57.3333 54.4 61.1556 51.2C64.9778 48 66.8889 44.4 66.8889 40V28H76.4444C79.3111 28 81.2222 27.2 83.1333 25.6C85.0444 24 86 22.4 86 20V8C86 6 85.0444 4 83.1333 2.4ZM57.3333 8V40C57.3333 42.4 56.3778 44 54.4667 45.6C52.5556 47.2 50.6444 48 47.7778 48H19.1111C16.2444 48 14.3333 47.2 12.4222 45.6C10.5111 44 9.55556 42 9.55556 40V8H28.6667V13.6L20.0667 19.2C19.1111 19.6 19.1111 20.4 19.1111 20.8V38C19.1111 39.2 20.0667 40 21.5 40H40.6111C42.0444 40 43 39.2 43 38V20.8C43 20 42.5222 19.6 42.0444 19.2L33.4444 13.6V8H57.3333ZM76.4444 20H66.8889V8H76.4444V20Z" fill="white"/>
</svg>
