<svg width="56" height="66" viewBox="0 0 56 66" fill="none" xmlns="http://www.w3.org/2000/svg">
<path d="M17.6068 37.5466C12.1941 37.5466 7.77684 33.1604 7.77684 27.7789C7.77684 25.5702 8.58563 23.4549 9.92325 21.7751C8.61674 20.0954 7.77684 17.9801 7.77684 15.7714C7.77684 10.3899 12.2252 6.00372 17.6068 6.00372L18.9444 6.09704C19.6785 4.29766 20.9312 2.75722 22.5431 1.67156C24.1549 0.5859 26.0532 0.00405715 27.9966 0C32.0717 0 35.5868 2.5197 37.0489 6.09704L38.3865 6.00372C43.7681 6.00372 48.2164 10.3899 48.2164 15.7714C48.2164 17.9801 47.4076 20.0954 46.07 21.7751C47.3765 23.4549 48.2164 25.5702 48.2164 27.7789C48.2164 33.1604 43.7681 37.5466 38.3865 37.5466L37.0489 37.4533C36.3147 39.2526 35.0621 40.7931 33.4502 41.8787C31.8383 42.9644 29.94 43.5462 27.9966 43.5503C26.0532 43.5462 24.1549 42.9644 22.5431 41.8787C20.9312 40.7931 19.6785 39.2526 18.9444 37.4533L17.6068 37.5466V37.5466ZM27.9966 37.3288C29.9253 37.3288 31.4806 35.7735 31.5429 33.907L31.2007 30.5163C30.2052 30.8896 29.1165 31.1074 27.9966 31.1074C26.8768 31.1074 25.8191 30.8896 24.8859 30.5163L24.4504 33.907C24.5126 35.7735 26.068 37.3288 27.9966 37.3288V37.3288ZM38.3865 31.3251C40.3462 31.3251 41.9949 29.7386 41.9949 27.7478C41.9949 26.4413 41.155 25.1347 39.9107 24.5437L37.1733 23.2372C36.8 25.5391 35.5868 27.53 33.8759 28.9298L36.3956 30.703C36.9555 31.1074 37.6399 31.3251 38.3865 31.3251V31.3251ZM36.3645 12.8473L33.8137 14.5894C35.5557 15.9892 36.7689 17.9801 37.1422 20.2198L39.8796 18.9755C41.155 18.3533 41.9949 17.109 41.9949 15.7714C41.9949 13.8117 40.3462 12.2252 38.3865 12.2252C37.671 12.2252 36.9866 12.4429 36.3645 12.8473ZM27.9966 6.22147C26.068 6.22147 24.5126 7.77684 24.4504 9.64328L24.8859 13.034C25.8191 12.6607 26.8768 12.4429 27.9966 12.4429C29.1165 12.4429 30.2052 12.6607 31.2007 13.034L31.5429 9.64328C31.4806 7.77684 29.9253 6.22147 27.9966 6.22147ZM17.6068 12.2252C15.647 12.2252 13.9983 13.8117 13.9983 15.7714C13.9983 17.109 14.8382 18.3533 16.0825 18.9755L18.82 20.2198C19.1932 17.9801 20.4064 15.9892 22.1173 14.5894L19.5976 12.8473C19.0377 12.4429 18.3533 12.2252 17.6068 12.2252V12.2252ZM16.0825 24.5748C14.8382 25.197 13.9983 26.4413 13.9983 27.7478C13.9983 29.7075 15.647 31.294 17.6068 31.294C18.3222 31.294 19.0066 31.1074 19.6287 30.6719L22.1484 28.961C20.4064 27.5611 19.1932 25.5702 18.82 23.3305L16.0825 24.5748ZM27.9966 65.3254C20.5715 65.3254 13.4504 62.3758 8.20002 57.1254C2.94964 51.875 0 44.754 0 37.3288C7.42517 37.3288 14.5462 40.2785 19.7966 45.5288C25.047 50.7792 27.9966 57.9003 27.9966 65.3254C27.9966 57.9003 30.9463 50.7792 36.1966 45.5288C41.447 40.2785 48.5681 37.3288 55.9932 37.3288C55.9932 44.754 53.0436 51.875 47.7932 57.1254C42.5428 62.3758 35.4218 65.3254 27.9966 65.3254V65.3254ZM35.5868 57.7353C38.5141 56.6376 41.1724 54.9259 43.383 52.7153C45.5937 50.5046 47.3054 47.8463 48.403 44.919C42.4926 47.0965 37.7954 51.8249 35.5868 57.7353V57.7353ZM7.5902 44.919C8.68787 47.8463 10.3996 50.5046 12.6102 52.7153C14.8208 54.9259 17.4792 56.6376 20.4064 57.7353C18.2289 51.8249 13.5006 47.1276 7.5902 44.919V44.919Z" fill="#53657C"/>
</svg>
